<svg width="70" height="70" viewBox="0 0 70 70" fill="none" xmlns="http://www.w3.org/2000/svg">
<path d="M35.48 7.86402C28.1557 7.86402 21.1315 10.7736 15.9525 15.9526C10.7735 21.1316 7.86396 28.1558 7.86396 35.48C7.86396 42.8042 10.7735 49.8285 15.9525 55.0075C21.1315 60.1865 28.1557 63.096 35.48 63.096C42.8042 63.096 49.8284 60.1865 55.0074 55.0075C60.1864 49.8285 63.096 42.8042 63.096 35.48C63.096 28.1558 60.1864 21.1316 55.0074 15.9526C49.8284 10.7736 42.8042 7.86402 35.48 7.86402ZM0.959961 35.48C0.959961 16.4146 16.4146 0.960022 35.48 0.960022C54.5454 0.960022 70 16.4146 70 35.48C70 54.5454 54.5454 70 35.48 70C16.4146 70 0.959961 54.5454 0.959961 35.48ZM20.9574 20.9575C21.6047 20.3103 22.4826 19.9468 23.398 19.9468C24.3133 19.9468 25.1912 20.3103 25.8385 20.9575L35.48 30.5989L45.1214 20.9575C45.4398 20.6278 45.8207 20.3648 46.2419 20.1839C46.6631 20.0029 47.116 19.9077 47.5744 19.9037C48.0327 19.8998 48.4873 19.9871 48.9115 20.1607C49.3358 20.3342 49.7212 20.5906 50.0453 20.9147C50.3694 21.2388 50.6258 21.6242 50.7993 22.0485C50.9729 22.4727 51.0602 22.9272 51.0563 23.3856C51.0523 23.844 50.957 24.2969 50.7761 24.7181C50.5952 25.1392 50.3322 25.5201 50.0025 25.8386L40.3611 35.48L50.0025 45.1215C50.6313 45.7725 50.9793 46.6445 50.9714 47.5496C50.9636 48.4547 50.6005 49.3205 49.9605 49.9605C49.3204 50.6006 48.4546 50.9636 47.5495 50.9715C46.6444 50.9793 45.7725 50.6314 45.1214 50.0026L35.48 40.3611L25.8385 50.0026C25.1875 50.6314 24.3155 50.9793 23.4104 50.9715C22.5053 50.9636 21.6395 50.6006 20.9994 49.9605C20.3594 49.3205 19.9964 48.4547 19.9885 47.5496C19.9806 46.6445 20.3286 45.7725 20.9574 45.1215L30.5988 35.48L20.9574 25.8386C20.3102 25.1912 19.9467 24.3134 19.9467 23.398C19.9467 22.4827 20.3102 21.6048 20.9574 20.9575Z" fill="#00D5E2"/>
</svg>
